<svg id="Layer_1" data-name="Layer 1" xmlns="http://www.w3.org/2000/svg" viewBox="0 0 28 28"><defs><style>.cls-1{fill:#757575;}.cls-2{fill:none;stroke:#757575;stroke-miterlimit:10;stroke-width:0.6px;}</style></defs><title>ICONS_GT</title><rect class="cls-1" x="7.52" y="7.64" width="0.57" height="13.5"/><rect class="cls-1" x="10.91" y="11.62" width="0.57" height="2.3"/><path class="cls-1" d="M15.52,7.45H8.62V8h6.92a2.82,2.82,0,0,1,1.85.78,4.44,4.44,0,0,1,1.1,3.33c0,2.07-.78,3.07-1.44,3.54a2.83,2.83,0,0,1-1.54.54H13.33v.57h2.16a3.48,3.48,0,0,0,1.79-.6c.81-.52,1.77-1.65,1.77-4.05A4.92,4.92,0,0,0,17.77,8.4,3.31,3.31,0,0,0,15.52,7.45Z"/><path class="cls-1" d="M15.27,12a2.12,2.12,0,0,0-.55-1.58,1.47,1.47,0,0,0-1-.41H11.05v.57h2.68a.93.93,0,0,1,.61.27A1.62,1.62,0,0,1,14.7,12c0,1.39-1,1.4-1,1.4H12.52V14h1.17a1.54,1.54,0,0,0,.8-.25A2,2,0,0,0,15.27,12Z"/><rect class="cls-1" x="11.18" y="16.51" width="0.57" height="4.65"/><rect class="cls-1" x="8.62" y="20.79" width="1.99" height="0.57"/><path class="cls-2" d="M23.35,19.43V17.71a1.64,1.64,0,1,0-3.27,0v.36"/><path class="cls-2" d="M16.2,25.3H3.32a.78.78,0,0,1-.78-.78v-21a.78.78,0,0,1,.78-.78h19a.78.78,0,0,1,.79.78V14.8"/><line class="cls-2" x1="21.58" y1="22.46" x2="21.58" y2="24.21"/><circle class="cls-2" cx="21.58" cy="21.64" r="0.97"/><rect class="cls-2" x="17.97" y="19.17" width="7.48" height="6.13" rx="0.3"/></svg>