<svg id="Layer_1" data-name="Layer 1" xmlns="http://www.w3.org/2000/svg" viewBox="0 0 28 28"><defs><style>.cls-1{fill:#757575;}</style></defs><title>ICONS_GT</title><rect class="cls-1" x="8.32" y="7.41" width="0.57" height="13.5"/><path class="cls-1" d="M22.89,2.47H4.63A1.3,1.3,0,0,0,3.34,3.78V24.22a1.31,1.31,0,0,0,1.31,1.31H22.89a1.31,1.31,0,0,0,1.31-1.31V3.78A1.31,1.31,0,0,0,22.89,2.47Zm.74,21.75a.74.74,0,0,1-.74.74H4.63a.74.74,0,0,1-.74-.74V3.78A.74.74,0,0,1,4.63,3H22.89a.74.74,0,0,1,.74.74Z"/><rect class="cls-1" x="11.7" y="11.39" width="0.57" height="2.3"/><path class="cls-1" d="M16.32,7.21H9.42v.57h6.92a2.77,2.77,0,0,1,1.85.78,4.42,4.42,0,0,1,1.1,3.33c0,2.07-.78,3.07-1.44,3.54a2.85,2.85,0,0,1-1.54.54H14.13v.57h2.16a3.48,3.48,0,0,0,1.79-.6c.81-.52,1.77-1.65,1.77-4a5,5,0,0,0-1.28-3.73A3.36,3.36,0,0,0,16.32,7.21Z"/><path class="cls-1" d="M16.07,11.78a2.12,2.12,0,0,0-.55-1.58,1.43,1.43,0,0,0-1-.41H11.85v.56h2.68a1,1,0,0,1,.61.28,1.61,1.61,0,0,1,.36,1.17c0,1.39-1,1.4-1,1.4H13.32v.57h1.17a1.55,1.55,0,0,0,.8-.26A2,2,0,0,0,16.07,11.78Z"/><rect class="cls-1" x="11.97" y="16.28" width="0.57" height="4.65"/><rect class="cls-1" x="9.42" y="20.56" width="1.99" height="0.57"/></svg>