<svg id="Layer_1" data-name="Layer 1" xmlns="http://www.w3.org/2000/svg" viewBox="0 0 28 28"><defs><style>.cls-1{fill:none;}.cls-1,.cls-3{stroke:#757575;stroke-miterlimit:10;stroke-width:0.6px;}.cls-2,.cls-3{fill:#757575;}</style></defs><title>ICONS_GT</title><path class="cls-1" d="M20.65,3.62a3,3,0,1,0,3,3A3,3,0,0,0,20.65,3.62Z"/><path class="cls-2" d="M20.65,2.81v0H21v-1h-.6v1Z"/><path class="cls-2" d="M20.65,11.45v-1h-.3v1H21v-1h-.3Z"/><path class="cls-2" d="M24.46,6.65h0c0,.1,0,.2,0,.3h1v-.6h-1a2.45,2.45,0,0,1,0,.27Z"/><path class="cls-2" d="M15.84,6.65h1v0a2.45,2.45,0,0,1,0-.27h-1V7h1c0-.1,0-.2,0-.3Z"/><path class="cls-2" d="M18.17,3.74,17.47,3l-.22.22.7.69A2.09,2.09,0,0,1,18.17,3.74Z"/><path class="cls-2" d="M17.25,3.25,17,3.46l.7.71A2.29,2.29,0,0,1,18,3.94Z"/><path class="cls-2" d="M23.33,9.32l.72.73.21-.22-.73-.73Z"/><path class="cls-2" d="M23.1,9.53l.74.73.21-.21-.72-.73Z"/><path class="cls-2" d="M17.25,10.05,18,9.32a2.18,2.18,0,0,1-.21-.22L17,9.83l.43.43.73-.73L18,9.32Z"/><path class="cls-2" d="M23.36,3.94l.69-.69L23.84,3l-.71.71Z"/><path class="cls-2" d="M23.56,4.17l.7-.71-.21-.21-.69.69C23.43,4,23.49,4.09,23.56,4.17Z"/><path class="cls-1" d="M1.93,20.38a5.88,5.88,0,0,1,5.35-.72c2.92.94,4.47,1.11,5.93.67.3-.09.59-.21.91-.34a7.1,7.1,0,0,1,5.4-.33c3,1,4.56,1.34,6.44.67"/><path class="cls-1" d="M1.93,22.46a5.93,5.93,0,0,1,5.35-.71c2.92.94,4.47,1.11,5.93.66.3-.09.59-.21.91-.33a7.1,7.1,0,0,1,5.4-.33c3,1,4.56,1.33,6.44.67"/><path class="cls-1" d="M4.13,12.14v-.89A1.84,1.84,0,0,1,5.86,9.32h0a1.64,1.64,0,0,1,1.23.58,2,2,0,0,1,.5,1.35v7.08"/><path class="cls-1" d="M8.74,12.14v-.89a1.85,1.85,0,0,1,1.73-1.93h0a1.65,1.65,0,0,1,1.23.58,2,2,0,0,1,.49,1.35v7.82"/><line class="cls-3" x1="2.12" y1="13.7" x2="6.31" y2="13.7"/><line class="cls-3" x1="8.43" y1="13.7" x2="11.25" y2="13.7"/><line class="cls-3" x1="8.43" y1="15.83" x2="11.25" y2="15.83"/><line class="cls-3" x1="8.43" y1="17.95" x2="11.25" y2="17.95"/></svg>