<svg id="Layer_1" data-name="Layer 1" xmlns="http://www.w3.org/2000/svg" viewBox="0 0 28 28"><defs><style>.cls-1{fill:#757575;stroke-width:0.25px;}.cls-1,.cls-2,.cls-3{stroke:#757575;}.cls-1,.cls-2{stroke-miterlimit:10;}.cls-2,.cls-3{fill:none;stroke-width:0.6px;}.cls-3{stroke-linejoin:round;}</style></defs><title>ICONS_GT</title><path class="cls-1" d="M13.26,20.76a6.49,6.49,0,1,1,6.48-6.49A6.5,6.5,0,0,1,13.26,20.76Zm0-12.6a6.12,6.12,0,1,0,6.11,6.11A6.12,6.12,0,0,0,13.26,8.16Z"/><rect class="cls-1" x="3.83" y="9.44" width="0.37" height="3.18"/><line class="cls-2" x1="4.01" y1="21.42" x2="4.01" y2="14.27"/><path class="cls-2" d="M2.27,9.44V12.8c0,1,.44,1.38,1.74,1.38"/><path class="cls-2" d="M5.57,9.44V12.8c0,1-.44,1.38-1.74,1.38"/><line class="cls-3" x1="22.19" y1="20.39" x2="22.19" y2="12.57"/><path class="cls-3" d="M21.9,9.06s-1,5-1,5.93.67.89.67.89"/><path class="cls-2" d="M25.43,13.91a3.33,3.33,0,0,0,.75-2.1c0-1.28-.75-2.37-1.47-2.37s-1.44,1.25-1.44,2.48a3.48,3.48,0,0,0,1.31,2.27l.13,6.27"/></svg>