<svg id="Layer_1" data-name="Layer 1" xmlns="http://www.w3.org/2000/svg" viewBox="0 0 28 28"><defs><style>.cls-1{fill:#757575;}</style></defs><title>ICONS_GT</title><polygon class="cls-1" points="25.32 13.7 20.44 13.7 23.22 10.91 22.82 10.51 19.6 13.7 14.17 13.7 14.12 13.62 11.44 8.99 11.46 8.93 12.61 4.63 12.06 4.48 11.03 8.27 8.6 4.06 8.09 4.36 10.54 8.56 6.73 7.56 6.58 8.11 10.95 9.28 10.98 9.34 13.65 13.99 10.95 18.7 10.89 18.71 6.58 19.87 6.73 20.44 10.54 19.41 8.09 23.64 8.6 23.94 11.03 19.7 12.06 23.52 12.61 23.37 11.44 18.99 14.17 14.28 19.6 14.28 22.81 17.49 23.22 17.07 20.44 14.28 25.32 14.28 25.32 13.7"/><polygon class="cls-1" points="15.79 11.46 17.05 9.28 17.11 9.27 21.41 8.11 21.27 7.56 17.48 8.56 19.91 4.36 19.4 4.06 16.97 8.27 15.94 4.48 15.39 4.63 16.56 8.99 15.3 11.17 15.79 11.46"/><polygon class="cls-1" points="10.9 14.28 10.9 13.7 8.4 13.7 5.19 10.51 4.78 10.91 7.56 13.7 2.68 13.7 2.68 14.28 7.56 14.28 4.78 17.07 5.19 17.49 8.4 14.28 10.9 14.28"/><polygon class="cls-1" points="15.79 16.52 15.3 16.81 16.56 18.99 16.54 19.05 15.39 23.37 15.94 23.52 16.97 19.7 19.4 23.94 19.91 23.64 17.48 19.41 21.27 20.44 21.41 19.87 17.05 18.7 15.79 16.52"/></svg>