<svg id="Layer_1" data-name="Layer 1" xmlns="http://www.w3.org/2000/svg" viewBox="0 0 28 28"><defs><style>.cls-1{fill:none;stroke:#757575;stroke-miterlimit:10;stroke-width:0.6px;}</style></defs><title>ICONS_GT</title><path class="cls-1" d="M3.14,9A15.07,15.07,0,0,1,14,4.43,15.43,15.43,0,0,1,24.86,9"/><path class="cls-1" d="M5.83,12.49A11.28,11.28,0,0,1,14,9.09a11.57,11.57,0,0,1,8.21,3.4"/><path class="cls-1" d="M8.56,16.62A7.54,7.54,0,0,1,14,14.35a7.66,7.66,0,0,1,5.46,2.27"/><path class="cls-1" d="M14,23.3a2.47,2.47,0,1,1,2.47-2.47A2.48,2.48,0,0,1,14,23.3Z"/></svg>