<svg id="Layer_1" data-name="Layer 1" xmlns="http://www.w3.org/2000/svg" viewBox="0 0 28 28"><defs><style>.cls-1{fill:#757575;}</style></defs><title>ICONS_GT</title><path class="cls-1" d="M10.5,19.47H3.22a1.77,1.77,0,0,1,0-3.54h7a1.08,1.08,0,1,1,0,2.15H3.1v-.56h7.14a.52.52,0,1,0,0-1h-7a1.21,1.21,0,1,0,0,2.42H10.5a1.7,1.7,0,0,0,1.27-.57l.34-.36.41.38-.34.35A2.22,2.22,0,0,1,10.5,19.47Z"/><path class="cls-1" d="M2.72,16.59l-.36-.43,3.39-2.81a2.8,2.8,0,0,1,1.87-.57H9.68v.56H7.62a2.3,2.3,0,0,0-1.51.43Z"/><path class="cls-1" d="M20.36,12.82a6.05,6.05,0,0,0-2.22-3.88,6,6,0,0,0-2.23,3.88l-.55-.11A6.47,6.47,0,0,1,18,8.37a.26.26,0,0,1,.29,0,6.37,6.37,0,0,1,2.63,4.35Z"/><path class="cls-1" d="M16.18,18a5.35,5.35,0,0,1-3.73-1.62,4.87,4.87,0,0,1-1-5.82.26.26,0,0,1,.2-.14.27.27,0,0,1,.23.08l6.3,6.31,6.31-6.31a.31.31,0,0,1,.23-.08.26.26,0,0,1,.2.14,4.86,4.86,0,0,1-1.06,5.82A5.21,5.21,0,0,1,19.59,18l.06-.55A4.72,4.72,0,0,0,23.42,16a4.42,4.42,0,0,0,1.14-4.82l-6.23,6.23a.27.27,0,0,1-.39,0L11.7,11.2A4.44,4.44,0,0,0,12.85,16a4.67,4.67,0,0,0,3.85,1.42l.16,0L17,18l-.18,0A4,4,0,0,1,16.18,18Z"/><path class="cls-1" d="M13.86,10.77l-.54-.13a4.1,4.1,0,0,1,1-2,.27.27,0,0,1,.34,0,3.08,3.08,0,0,1,.82.73l.19.24-.46.33a1.92,1.92,0,0,0-.16-.21,2.45,2.45,0,0,0-.49-.48A3.88,3.88,0,0,0,13.86,10.77Z"/><path class="cls-1" d="M22.41,10.78A3.92,3.92,0,0,0,21.7,9.2a3,3,0,0,0-.6.62l-.45-.33a3.18,3.18,0,0,1,.94-.9.27.27,0,0,1,.34,0,4,4,0,0,1,1,2Z"/><path class="cls-1" d="M19.49,13.93a2.2,2.2,0,0,0-1.4-.41,2.3,2.3,0,0,0-1.37.38l-.35-.44a2.9,2.9,0,0,1,1.72-.5,2.73,2.73,0,0,1,1.77.55Z"/></svg>