<?xml version="1.0" encoding="utf-8"?>
<!-- Generator: Adobe Illustrator 23.0.3, SVG Export Plug-In . SVG Version: 6.00 Build 0)  -->
<svg version="1.1" id="Capa_1" xmlns="http://www.w3.org/2000/svg" xmlns:xlink="http://www.w3.org/1999/xlink" x="0px" y="0px"
	 viewBox="0 0 97.6 97.6" style="enable-background:new 0 0 97.6 97.6;" xml:space="preserve">
<style type="text/css">
	.st0{fill:none;stroke:#FFFFFF;stroke-width:2;stroke-linejoin:round;}
	.st1{fill:none;stroke:#FFFFFF;stroke-width:2;stroke-linecap:round;stroke-linejoin:round;}
</style>
<g>
	<circle class="st0" cx="75.6" cy="30" r="9.6"/>
	<circle class="st0" cx="12.5" cy="47.2" r="3.8"/>
	<circle class="st0" cx="41.2" cy="68.2" r="21"/>
	<path class="st1" d="M31.6,68.2c0-5.3,4.3-9.6,9.6-9.6"/>
	<path class="st0" d="M96.6,30c0,11.6-21,36.3-21,36.3s-21-24.7-21-36.3s9.4-21,21-21C87.2,8.9,96.6,18.3,96.6,30z"/>
	<path class="st0" d="M55.7,35.7h-49c-3.2,0-5.7,2.6-5.7,5.7v49.7c0,3.2,2.6,5.7,5.7,5.7h68.8c3.2,0,5.7-2.6,5.7-5.7V59.1"/>
</g>
</svg>
